<?xml version="1.0" encoding="UTF-8" ?>
<svg
  id="Layer_2"
  data-name="Layer 2"
  xmlns="http://www.w3.org/2000/svg"
  width="369.44"
  height="62.23"
  viewBox="0 0 369.44 62.23"
>
  <defs>
    <style>
      .cls-1 {
        fill: #fff;
      }

      .cls-1, .cls-2 {
        stroke: #000;
        stroke-miterlimit: 10;
      }

      .cls-2 {
        fill: none;
      }
    </style>
  </defs>
  <g id="Layer_1-2" data-name="Layer 1">
    <g>
      <path
        class="cls-1"
        d="M214.55,51.97C223.85,34.32,246.8,2.93,287.74,.83c35.25-1.81,49.38,12.25,64.24,19.8,0,0-12.33,34.84-62.27,34.67-29.68-.1-45.44-9.03-57.62-9.03-10.99,0-17.55,5.7-17.55,5.7"
      />
      <path
        class="cls-2"
        d="M210.04,62.07c3.29-9.88,26.34-58.61,77.7-61.24,51.36-2.63,56.63,25.68,81.65,23.71"
      />
      <path
        fill="none"
        stroke="black"
        d="M259.3,7.69c20.76-8.91,39.42-8.94,61.47-3.36,3.95,14.05-6.14,43.53-28.86,43.48-21.22-.05-37.11-17.73-32.61-40.12Z"
      />
    </g>
    <g>
      <path
        class="cls-1"
        d="M154.88,51.97C145.59,34.32,122.64,2.93,81.69,.83,46.45-.98,32.32,13.08,17.45,20.63c0,0,12.33,34.84,62.27,34.67,29.68-.1,45.44-9.03,57.62-9.03,10.99,0,17.55,5.7,17.55,5.7"
      />
      <path
        class="cls-2"
        d="M159.4,62.07c-3.29-9.88-26.34-58.61-77.7-61.24C30.33-1.8,25.06,26.51,.04,24.54"
      />
      <path
        fill="none"
        stroke="black"
        d="M110.13,7.69C89.38-1.22,70.72-1.25,48.66,4.33c-3.95,14.05,6.14,43.53,28.86,43.48,21.22-.05,37.11-17.73,32.61-40.12Z"
      />
    </g>
  </g>
</svg>
